Coordinates
version=1
nRows=12
nColumns=34
inDegrees=yes
inDegrees=no

Units are S.I. units (second, meters, Newtons, ...)
If the header above contains a line with 'inDegrees', this indicates whether rotational values are in degrees (yes) or radians (no).

endheader
time	pelvis_tilt	pelvis_list	pelvis_rotation	pelvis_tx	pelvis_ty	pelvis_tz	hip_flexion_r	hip_adduction_r	hip_rotation_r	knee_angle_r	ankle_angle_r	subtalar_angle_r	mtp_angle_r	hip_flexion_l	hip_adduction_l	hip_rotation_l	knee_angle_l	ankle_angle_l	subtalar_angle_l	mtp_angle_l	lumbar_extension	lumbar_bending	lumbar_rotation	arm_flex_r	arm_add_r	arm_rot_r	elbow_flex_r	pro_sup_r	arm_flex_l	arm_add_l	arm_rot_l	elbow_flex_l	pro_sup_l
5.866667 0.297807 0.075250 -0.065277 -0.011137 0.008839 0.000832 1.158909 0.181818 -0.147696 0.478838 -0.289395 -0.253473 0.000000 1.302369 -0.058955 0.137238 0.907435 0.641583 0.062182 0.000000 -0.867811 0.064786 -0.306350 0.095025 -0.460434 0.195826 1.276119 1.700872 1.072871 -0.288890 0.519220 0.765953 1.054352
5.883333 0.299830 0.080765 -0.043452 -0.011065 0.008839 0.000798 1.157479 0.170109 -0.126869 0.478292 -0.292085 -0.283549 0.000000 1.292616 -0.047019 0.128567 0.896445 0.643989 0.087281 0.000000 -0.840681 0.066252 -0.289217 0.104910 -0.474633 0.181684 1.317029 1.700572 1.086900 -0.296292 0.489162 0.772659 1.068561
5.900000 0.302563 0.089869 -0.024903 -0.011194 0.008786 0.000798 1.162082 0.158038 -0.100209 0.480804 -0.293336 -0.291138 0.000000 1.295828 -0.036437 0.108425 0.900284 0.602552 0.096353 0.000000 -0.816698 0.060413 -0.271005 0.133646 -0.486596 0.178676 1.348251 1.701173 1.122466 -0.305726 0.483239 0.781771 1.073823
5.916667 0.303954 0.094538 -0.006625 -0.011084 0.008880 0.000782 1.159947 0.149624 -0.065365 0.484608 -0.303914 -0.310996 0.000000 1.293546 -0.027293 0.094371 0.902793 0.575821 0.081404 0.000000 -0.790021 0.058765 -0.234254 0.141220 -0.504687 0.169623 1.375470 1.701870 1.156506 -0.306466 0.481771 0.812497 1.086048
5.933333 0.296276 0.096903 0.001545 -0.011083 0.008854 0.000668 1.180040 0.146024 -0.047518 0.512963 -0.277993 -0.319602 0.000000 1.300063 -0.022427 0.080014 0.906661 0.629298 0.116615 0.000000 -0.752182 0.059378 -0.186586 0.162218 -0.533348 0.163122 1.397598 1.702378 1.198456 -0.299100 0.487823 0.836863 1.101244
5.950000 0.314113 0.101212 0.012029 -0.011372 0.008757 0.000683 1.181320 0.138970 -0.032135 0.534160 -0.269152 -0.303557 0.000000 1.284168 -0.016078 0.057781 0.896891 0.648373 0.126422 0.000000 -0.746514 0.055578 -0.140437 0.205129 -0.571117 0.174048 1.428603 1.700386 1.304396 -0.278229 0.559310 0.800551 1.126248
5.966667 0.336378 0.108957 0.024287 -0.011532 0.008805 0.000655 1.170651 0.125524 -0.013857 0.547904 -0.265572 -0.288286 0.000000 1.261765 -0.004972 0.040899 0.886385 0.655925 0.123292 0.000000 -0.751213 0.048124 -0.079843 0.248196 -0.608289 0.166662 1.452611 1.688045 1.414485 -0.226622 0.656959 0.755469 1.143246
5.983333 0.339887 0.110286 0.035859 -0.011312 0.008808 0.000553 1.184799 0.113528 -0.007291 0.589681 -0.254510 -0.306033 0.000000 1.266481 -0.000890 0.035913 0.906650 0.696316 0.153688 0.000000 -0.715310 0.051382 0.031991 0.198577 -0.655902 0.068714 1.502405 1.661778 1.402468 -0.149226 0.652502 0.860213 1.148947
6.000000 0.340213 0.112038 0.044325 -0.011354 0.008901 0.000547 1.187413 0.106867 -0.001927 0.606743 -0.240122 -0.298539 0.000000 1.267899 0.001193 0.025586 0.916285 0.755547 0.197727 0.000000 -0.711084 0.054231 0.083549 0.250257 -0.674639 0.044652 1.508268 1.649791 1.473876 -0.133155 0.711086 0.880316 1.163092
6.016667 0.363533 0.113701 0.054748 -0.011696 0.009019 0.000636 1.158449 0.097922 0.005297 0.602660 -0.242686 -0.278191 0.000000 1.234997 0.006302 0.013621 0.898815 0.670817 0.145279 0.000000 -0.752909 0.052253 0.115125 0.395516 -0.686986 0.086671 1.458638 1.634283 1.612989 -0.123068 0.800772 0.818789 1.171771
6.033333 0.366139 0.114929 0.060716 -0.011413 0.009106 0.000522 1.153352 0.091982 0.010592 0.611558 -0.228981 -0.281670 0.000000 1.227006 0.010377 0.013234 0.897685 0.647024 0.148194 0.000000 -0.773414 0.061545 0.145496 0.506256 -0.702675 0.110844 1.431761 1.616734 1.672010 -0.124824 0.817995 0.835779 1.168642
6.050000 0.352185 0.118617 0.068365 -0.011200 0.009001 0.000458 1.176377 0.084889 0.005629 0.633830 -0.216244 -0.285902 0.000000 1.249163 0.013409 0.002525 0.912443 0.662891 0.205966 0.000000 -0.758013 0.075162 0.185109 0.614707 -0.741072 0.173248 1.404339 1.591484 1.686888 -0.145890 0.765040 0.927914 1.172393
